<svg id="visual" viewBox="0 0 960 540" width="960" height="540" xmlns="http://www.w3.org/2000/svg" xmlns:xlink="http://www.w3.org/1999/xlink" version="1.1"><rect x="0" y="0" width="960" height="540" fill="#001122"></rect><path d="M0 395L22.8 393.2C45.7 391.3 91.3 387.7 137 390.3C182.7 393 228.3 402 274 407C319.7 412 365.3 413 411.2 414C457 415 503 416 548.8 407C594.7 398 640.3 379 686 378.2C731.7 377.3 777.3 394.7 823 402.3C868.7 410 914.3 408 937.2 407L960 406L960 541L937.2 541C914.3 541 868.7 541 823 541C777.3 541 731.7 541 686 541C640.3 541 594.7 541 548.8 541C503 541 457 541 411.2 541C365.3 541 319.7 541 274 541C228.3 541 182.7 541 137 541C91.3 541 45.7 541 22.8 541L0 541Z" fill="#ff6f61"></path><path d="M0 410L22.8 416.3C45.7 422.7 91.3 435.3 137 436.2C182.7 437 228.3 426 274 419.7C319.7 413.3 365.3 411.7 411.2 413.5C457 415.3 503 420.7 548.8 426C594.7 431.3 640.3 436.7 686 438C731.7 439.3 777.3 436.7 823 432.2C868.7 427.7 914.3 421.3 937.2 418.2L960 415L960 541L937.2 541C914.3 541 868.7 541 823 541C777.3 541 731.7 541 686 541C640.3 541 594.7 541 548.8 541C503 541 457 541 411.2 541C365.3 541 319.7 541 274 541C228.3 541 182.7 541 137 541C91.3 541 45.7 541 22.8 541L0 541Z" fill="#ff5e60"></path><path d="M0 448L22.8 448.8C45.7 449.7 91.3 451.3 137 449.2C182.7 447 228.3 441 274 439.5C319.7 438 365.3 441 411.2 440.2C457 439.3 503 434.7 548.8 440C594.7 445.3 640.3 460.7 686 460.3C731.7 460 777.3 444 823 436.8C868.7 429.7 914.3 431.3 937.2 432.2L960 433L960 541L937.2 541C914.3 541 868.7 541 823 541C777.3 541 731.7 541 686 541C640.3 541 594.7 541 548.8 541C503 541 457 541 411.2 541C365.3 541 319.7 541 274 541C228.3 541 182.7 541 137 541C91.3 541 45.7 541 22.8 541L0 541Z" fill="#ff4b60"></path><path d="M0 476L22.8 478.2C45.7 480.3 91.3 484.7 137 486.3C182.7 488 228.3 487 274 486.3C319.7 485.7 365.3 485.3 411.2 484C457 482.7 503 480.3 548.8 478.7C594.7 477 640.3 476 686 472.5C731.7 469 777.3 463 823 460C868.7 457 914.3 457 937.2 457L960 457L960 541L937.2 541C914.3 541 868.7 541 823 541C777.3 541 731.7 541 686 541C640.3 541 594.7 541 548.8 541C503 541 457 541 411.2 541C365.3 541 319.7 541 274 541C228.3 541 182.7 541 137 541C91.3 541 45.7 541 22.8 541L0 541Z" fill="#ff3362"></path><path d="M0 517L22.8 512.2C45.7 507.3 91.3 497.7 137 496C182.7 494.3 228.3 500.7 274 504.7C319.7 508.7 365.3 510.3 411.2 506.8C457 503.3 503 494.7 548.8 495.7C594.7 496.7 640.3 507.3 686 510.3C731.7 513.3 777.3 508.7 823 508.5C868.7 508.3 914.3 512.7 937.2 514.8L960 517L960 541L937.2 541C914.3 541 868.7 541 823 541C777.3 541 731.7 541 686 541C640.3 541 594.7 541 548.8 541C503 541 457 541 411.2 541C365.3 541 319.7 541 274 541C228.3 541 182.7 541 137 541C91.3 541 45.7 541 22.8 541L0 541Z" fill="#ff0066"></path></svg>